<svg width="15" height="15" viewBox="0 0 15 15" fill="none" xmlns="http://www.w3.org/2000/svg">
<path d="M2.18713 3.32949C2.18713 2.70865 2.69022 2.20557 3.31105 2.20557H11.2038C11.8247 2.20557 12.3278 2.70865 12.3278 3.32949V11.2223C12.3278 11.5204 12.2094 11.8062 11.9986 12.017C11.7878 12.2278 11.5019 12.3462 11.2038 12.3462H3.31105C3.01297 12.3462 2.7271 12.2278 2.51632 12.017C2.30555 11.8062 2.18713 11.5204 2.18713 11.2223V3.32949ZM4.07836 10.6561H10.5515C10.1884 10.1341 9.70446 9.70771 9.14084 9.41339C8.57723 9.11908 7.95075 8.96557 7.31492 8.96599C6.67908 8.96557 6.0526 9.11908 5.48899 9.41339C4.92537 9.70771 4.44138 10.1341 4.07836 10.6561ZM7.25745 7.83925C7.51639 7.83925 7.77279 7.78825 8.01202 7.68916C8.25125 7.59007 8.46862 7.44483 8.65172 7.26173C8.83482 7.07863 8.98006 6.86126 9.07915 6.62203C9.17824 6.3828 9.22924 6.1264 9.22924 5.86746C9.22924 5.60852 9.17824 5.35212 9.07915 5.11289C8.98006 4.87366 8.83482 4.65629 8.65172 4.4732C8.46862 4.2901 8.25125 4.14486 8.01202 4.04577C7.77279 3.94667 7.51639 3.89567 7.25745 3.89567C6.7345 3.89567 6.23297 4.10341 5.86319 4.4732C5.4934 4.84298 5.28566 5.34451 5.28566 5.86746C5.28566 6.39041 5.4934 6.89195 5.86319 7.26173C6.23297 7.63151 6.7345 7.83925 7.25745 7.83925Z" fill="white"/>
</svg>
