<svg width="15" height="15" viewBox="0 0 15 15" fill="none" xmlns="http://www.w3.org/2000/svg">
<path d="M12.7111 11.7825C12.7111 11.9319 12.6517 12.0752 12.5461 12.1809C12.4404 12.2865 12.2971 12.3459 12.1477 12.3459H3.1338C2.98439 12.3459 2.84109 12.2865 2.73544 12.1809C2.62979 12.0752 2.57043 11.9319 2.57043 11.7825V5.86152C2.57038 5.77567 2.58994 5.69094 2.62763 5.61381C2.66531 5.53667 2.72013 5.46917 2.78789 5.41646L7.29484 1.91118C7.39374 1.83425 7.51546 1.79248 7.64075 1.79248C7.76605 1.79248 7.88777 1.83425 7.98666 1.91118L12.4936 5.41646C12.5614 5.46917 12.6162 5.53667 12.6539 5.61381C12.6916 5.69094 12.7111 5.77567 12.7111 5.86152V11.7825V11.7825Z" fill="white"/>
</svg>
