<svg width="11" height="11" viewBox="0 0 11 11" fill="none" xmlns="http://www.w3.org/2000/svg">
<g clip-path="url(#clip0_293_871)">
<path d="M5.13066 3.07763L5.27207 3.21905L5.41349 3.07763C5.78952 2.7016 6.39759 2.33623 7.07204 2.33623C8.16464 2.33623 9.072 3.23415 9.072 4.53618C9.072 5.8588 8.36449 6.90977 7.50983 7.7156C6.75217 8.42996 5.89869 8.93356 5.36101 9.25081C5.33031 9.26893 5.30064 9.28644 5.27207 9.30334C5.24351 9.28644 5.21384 9.26893 5.18314 9.25081C4.64546 8.93355 3.79198 8.42996 3.03432 7.7156C2.17966 6.90977 1.47215 5.8588 1.47215 4.53618C1.47215 3.23507 2.39384 2.33623 3.47211 2.33623C4.14656 2.33623 4.75463 2.7016 5.13066 3.07763Z" stroke="#6C28FE" stroke-width="0.399992"/>
</g>
<defs>
<clipPath id="clip0_293_871">
<rect width="9.5998" height="9.5998" fill="white" transform="translate(0.472168 0.936523)"/>
</clipPath>
</defs>
</svg>
