<svg width="8" height="8" viewBox="0 0 8 8" fill="none" xmlns="http://www.w3.org/2000/svg">
<g clip-path="url(#clip0_293_821)">
<path d="M5.66719 5.76687L6.95407 7.05346L6.52892 7.47861L5.24234 6.19173C4.76362 6.57548 4.16818 6.78421 3.55463 6.78334C2.06193 6.78334 0.850464 5.57187 0.850464 4.07917C0.850464 2.58647 2.06193 1.375 3.55463 1.375C5.04733 1.375 6.2588 2.58647 6.2588 4.07917C6.25968 4.69272 6.05095 5.28816 5.66719 5.76687ZM5.06446 5.54393C5.44578 5.15179 5.65874 4.62614 5.65788 4.07917C5.65788 2.91698 4.71652 1.97593 3.55463 1.97593C2.39244 1.97593 1.45139 2.91698 1.45139 4.07917C1.45139 5.24106 2.39244 6.18241 3.55463 6.18241C4.10161 6.18327 4.62725 5.97032 5.01939 5.589L5.06446 5.54393Z" fill="#C0C0C0"/>
</g>
<defs>
<clipPath id="clip0_293_821">
<rect width="7.21112" height="7.21112" fill="white" transform="translate(0.249634 0.774414)"/>
</clipPath>
</defs>
</svg>
