<svg width="15" height="15" viewBox="0 0 15 15" fill="none" xmlns="http://www.w3.org/2000/svg">
<path d="M6.06382 2.31006H9.44403L10.5708 3.4368H12.8242C12.9737 3.4368 13.117 3.49615 13.2226 3.6018C13.3283 3.70745 13.3876 3.85075 13.3876 4.00016V11.8873C13.3876 12.0367 13.3283 12.18 13.2226 12.2857C13.117 12.3913 12.9737 12.4507 12.8242 12.4507H2.68361C2.53419 12.4507 2.3909 12.3913 2.28525 12.2857C2.17959 12.18 2.12024 12.0367 2.12024 11.8873V4.00016C2.12024 3.85075 2.17959 3.70745 2.28525 3.6018C2.3909 3.49615 2.53419 3.4368 2.68361 3.4368H4.93708L6.06382 2.31006ZM7.75393 11.324C8.65041 11.324 9.51018 10.9678 10.1441 10.3339C10.778 9.7 11.1341 8.84023 11.1341 7.94374C11.1341 7.04726 10.778 6.18749 10.1441 5.55357C9.51018 4.91966 8.65041 4.56353 7.75393 4.56353C6.85744 4.56353 5.99767 4.91966 5.36375 5.55357C4.72984 6.18749 4.37371 7.04726 4.37371 7.94374C4.37371 8.84023 4.72984 9.7 5.36375 10.3339C5.99767 10.9678 6.85744 11.324 7.75393 11.324ZM7.75393 10.1972C7.15627 10.1972 6.58309 9.9598 6.16048 9.53719C5.73787 9.11458 5.50045 8.5414 5.50045 7.94374C5.50045 7.34609 5.73787 6.77291 6.16048 6.3503C6.58309 5.92769 7.15627 5.69027 7.75393 5.69027C8.35158 5.69027 8.92476 5.92769 9.34737 6.3503C9.76998 6.77291 10.0074 7.34609 10.0074 7.94374C10.0074 8.5414 9.76998 9.11458 9.34737 9.53719C8.92476 9.9598 8.35158 10.1972 7.75393 10.1972Z" fill="#6C28FE"/>
</svg>
