<svg width="14" height="15" viewBox="0 0 14 15" fill="none" xmlns="http://www.w3.org/2000/svg">
<path d="M6.93873 1.07861C7.30864 1.07861 7.67493 1.15147 8.01669 1.29303C8.35844 1.43459 8.66897 1.64208 8.93053 1.90365C9.1921 2.16522 9.39959 2.47574 9.54115 2.8175C9.68271 3.15925 9.75557 3.52554 9.75557 3.89546V5.02219H11.4457C11.5951 5.02219 11.7384 5.08155 11.844 5.1872C11.9497 5.29285 12.009 5.43615 12.009 5.58556V12.346C12.009 12.4954 11.9497 12.6387 11.844 12.7443C11.7384 12.85 11.5951 12.9094 11.4457 12.9094H2.43178C2.28236 12.9094 2.13907 12.85 2.03342 12.7443C1.92776 12.6387 1.86841 12.4954 1.86841 12.346V5.58556C1.86841 5.43615 1.92776 5.29285 2.03342 5.1872C2.13907 5.08155 2.28236 5.02219 2.43178 5.02219H4.12188V3.89546C4.12188 3.14838 4.41866 2.43191 4.94692 1.90365C5.47518 1.37539 6.19165 1.07861 6.93873 1.07861ZM9.75557 6.7123H8.62883V7.27567C8.62899 7.41926 8.68397 7.55737 8.78255 7.66178C8.88112 7.7662 9.01584 7.82903 9.15918 7.83744C9.30253 7.84586 9.44368 7.79922 9.55379 7.70706C9.6639 7.6149 9.73467 7.48417 9.75163 7.34158L9.75557 7.27567V6.7123ZM5.24862 6.7123H4.12188V7.27567C4.12204 7.41926 4.17702 7.55737 4.2756 7.66178C4.37417 7.7662 4.50889 7.82903 4.65224 7.83744C4.79558 7.84586 4.93673 7.79922 5.04684 7.70706C5.15695 7.6149 5.22772 7.48417 5.24468 7.34158L5.24862 7.27567V6.7123ZM6.93873 2.20535C6.50763 2.20533 6.09282 2.37004 5.77917 2.66578C5.46551 2.96153 5.27673 3.36595 5.25144 3.7963L5.24862 3.89546V5.02219H8.62883V3.89546C8.62886 3.46436 8.46414 3.04955 8.1684 2.7359C7.87265 2.42224 7.46823 2.23346 7.03788 2.20817L6.93873 2.20535Z" fill="white"/>
</svg>
